<svg xmlns="http://www.w3.org/2000/svg" viewBox="0 0 429.09 190.99"><defs><style>.cls-1{fill:#662d91;}</style></defs><title>SVG-Лого1-цвет,</title><g id="_1" data-name="1"><g id="Лого1_цвет." data-name="Лого1 цвет."><path d="M34.4,43.52A33,33,0,0,1,59.92,54.83L55,59.37a27.2,27.2,0,0,0-20.59-8.8,25.78,25.78,0,0,0-19.08,7.88A26.74,26.74,0,0,0,7.54,78a26.72,26.72,0,0,0,7.78,19.57,25.78,25.78,0,0,0,19.08,7.88,25.59,25.59,0,0,0,18-6.86V82.27H33.82V76.38h26.1v25A33.09,33.09,0,0,1,34.4,112.52a33.06,33.06,0,0,1-24.35-10.1A33.31,33.31,0,0,1,0,78a33.33,33.33,0,0,1,10.05-24.4A33.1,33.1,0,0,1,34.4,43.52Z"/><path d="M81.08,44.2h21.75q13,0,21.12,6.57T132,68.55a21,21,0,0,1-4.63,13.82,24.89,24.89,0,0,1-12.66,7.92q5.5,2.33,11.21,11.22l6.76,10.34h-8.6l-5.51-8.6q-4.15-6.39-7.34-8.32t-8.8-2H88.62v18.95H81.08Zm7.54,7v34.6h14.79q9.38,0,15.41-4.35t6-13q0-8.5-6-12.9t-15.41-4.4Z"/><path d="M158.2,93.87l-7.34,18h-8.31l28-67.65h4.26l27.93,67.65h-8.31l-7.35-18Zm14.5-35.76L160.91,86.82h23.58Z"/><path d="M225.57,74.16h33.14v7H225.57v30.64H218V44.2h42.81v7H225.57Z"/><path d="M348.11,104.79H356v7.06H332.64v-7.06h7.93V51.25h-7.93v-7H356v7h-7.92Z"/><path d="M429.09,111.85h-4.15L385.41,59v52.87h-7.54V44.2h4.26l39.43,52.86V44.2h7.53Z"/><path class="cls-1" d="M178,173.91h5.75a7.63,7.63,0,0,1,5.4,1.8,6,6,0,0,1,1.95,4.58,5.41,5.41,0,0,1-3.65,5.31,9.7,9.7,0,0,1,2.51,3l1.45,2.25h-3.74l-1.09-1.69a9,9,0,0,0-1.58-2,3.11,3.11,0,0,0-1.8-.46H181.3v4.13H178Zm3.34,3.14v6.5H184a4.5,4.5,0,0,0,2.8-.82,2.89,2.89,0,0,0,1.06-2.44,2.85,2.85,0,0,0-1.07-2.39,4.36,4.36,0,0,0-2.79-.85Z"/><path class="cls-1" d="M207.71,180.75H215v3.14h-7.32v3.79h7.92v3.14H204.37V173.91h11.26v3.14h-7.92Z"/><path class="cls-1" d="M234.26,173.74h.19a8.45,8.45,0,0,1,3.46.76,10.91,10.91,0,0,1,3.06,2l-2.17,2a7.29,7.29,0,0,0-2.16-1.21,6.37,6.37,0,0,0-2.19-.46h-.19a4.54,4.54,0,0,0-2,.45,1.48,1.48,0,0,0-.92,1.43,1.19,1.19,0,0,0,.73,1.14,6.77,6.77,0,0,0,2.09.53l1.36.15a8.89,8.89,0,0,1,4.4,1.53,4.29,4.29,0,0,1,1.59,3.66,4.52,4.52,0,0,1-1.85,3.78,7.72,7.72,0,0,1-4.73,1.44h-.14a9.19,9.19,0,0,1-4.24-1,8.31,8.31,0,0,1-2.94-2.46l2.18-2a5.38,5.38,0,0,0,2,1.59,6.59,6.59,0,0,0,3,.68h.14a4.57,4.57,0,0,0,2.36-.58,1.69,1.69,0,0,0,.88-1.5,1.55,1.55,0,0,0-.79-1.46,6.63,6.63,0,0,0-2.32-.64l-1.33-.15q-5.73-.68-5.73-4.63a4.45,4.45,0,0,1,1.78-3.71A7.21,7.21,0,0,1,234.26,173.74Z"/><path class="cls-1" d="M261.2,177.05v13.77h-3.34V177.05h-4.64v-3.14h12.62v3.14Z"/><path class="cls-1" d="M280,176.26a8.68,8.68,0,1,1-2.51,6.1A8.27,8.27,0,0,1,280,176.26Zm9.86,2.17a5.35,5.35,0,0,0-7.53,0,5.9,5.9,0,0,0,0,7.88,5.38,5.38,0,0,0,7.54,0,5.88,5.88,0,0,0,0-7.88Z"/><path class="cls-1" d="M312.88,184.8h-6v-1.9h6Z"/><path class="cls-1" d="M326.19,173.91h6.52a8.77,8.77,0,0,1,3,.44,3.83,3.83,0,0,1,1.78,1.2,4.75,4.75,0,0,1,.78,1.43,4.44,4.44,0,0,1,.22,1.42,3.49,3.49,0,0,1-2.22,3.6,3.5,3.5,0,0,1,2.1,1.39,4.34,4.34,0,0,1,.77,2.57q0,4.86-6.25,4.86h-6.65Zm3.33,3.14v3.62h3.56a2.28,2.28,0,0,0,1.71-.54,1.8,1.8,0,0,0,.51-1.27c0-1.21-.74-1.81-2.22-1.81Zm0,6.5v4.11h4a2.52,2.52,0,0,0,1.84-.57,2,2,0,0,0,.57-1.49,2,2,0,0,0-.59-1.46,2.5,2.5,0,0,0-1.82-.59Z"/><path class="cls-1" d="M355.38,187.73l-1.21,3.09h-3.7l7-16.91h2l6.86,16.91h-3.7l-1.21-3.09Zm3-7.78-1.83,4.61h3.64Z"/><path class="cls-1" d="M379.25,173.91H385a7.66,7.66,0,0,1,5.4,1.8,6,6,0,0,1,1.94,4.58,5.41,5.41,0,0,1-3.65,5.31,9.84,9.84,0,0,1,2.52,3l1.45,2.25h-3.75l-1.09-1.69a8.69,8.69,0,0,0-1.58-2,3.11,3.11,0,0,0-1.8-.46h-1.86v4.13h-3.33Zm3.33,3.14v6.5h2.73a4.5,4.5,0,0,0,2.8-.82,2.9,2.9,0,0,0,1.07-2.44,2.85,2.85,0,0,0-1.08-2.39,4.34,4.34,0,0,0-2.79-.85Z"/><path class="cls-1" d="M291.61,33.88a1.39,1.39,0,0,1-1.17-.62l-21.11-31a1.41,1.41,0,0,1,1.87-2l43.67,25a1.42,1.42,0,0,1-.33,2.6l-22.57,6A1.12,1.12,0,0,1,291.61,33.88ZM275.12,5.69l17.09,25.15L310.49,26Z"/><path class="cls-1" d="M282.24,50.63h-.19a1.42,1.42,0,0,1-1.19-1.07L269.12,1.75A1.42,1.42,0,0,1,271.67.62l21.11,31.05a1.43,1.43,0,0,1,.06,1.49l-9.37,16.75A1.41,1.41,0,0,1,282.24,50.63ZM273.75,8.71l9,36.68,7.18-12.85Z"/><path class="cls-1" d="M303.68,51.28a1.43,1.43,0,0,1-1.16-.61l-12.08-17.4a1.41,1.41,0,0,1-.16-1.29,1.43,1.43,0,0,1,1-.88l22.57-6A1.41,1.41,0,0,1,315.46,27L305,50.44a1.4,1.4,0,0,1-1.16.83Zm-9.76-18L303.42,47l8.25-18.43Z"/><path class="cls-1" d="M278.15,79.54a1.41,1.41,0,0,1-.68-.18,1.4,1.4,0,0,1-.72-1.4L280,49.09a1.41,1.41,0,0,1,2.64-.53l10,18.08a1.43,1.43,0,0,1-.35,1.79L279.05,79.22A1.44,1.44,0,0,1,278.15,79.54Zm4.16-25.72-2.36,21L289.6,67Z"/><path class="cls-1" d="M305.86,78.83a1.43,1.43,0,0,1-.81-.25L290.6,68.49a1.41,1.41,0,0,1-.58-.92,1.35,1.35,0,0,1,.23-1l12.28-17.47a1.41,1.41,0,0,1,2.56.7l2.18,27.55a1.4,1.4,0,0,1-.7,1.34A1.38,1.38,0,0,1,305.86,78.83ZM293.38,67l10.84,7.56-1.64-20.65Z"/><path class="cls-1" d="M318.16,106.69a1.48,1.48,0,0,1-.46-.08l-26.48-9.14a1.39,1.39,0,0,1-.89-.92,1.43,1.43,0,0,1,.22-1.27l14.19-18.72A1.4,1.4,0,0,1,306,76a1.42,1.42,0,0,1,1.13.83l12.3,27.86a1.41,1.41,0,0,1-.26,1.53A1.4,1.4,0,0,1,318.16,106.69ZM294,95.44l21.57,7.44-10-22.69Z"/><path class="cls-1" d="M340.22,138.88l-.24,0-49.44-8.52a1.41,1.41,0,0,1-1.12-1,1.4,1.4,0,0,1,.44-1.45l27.38-23.67a1.42,1.42,0,0,1,2.09.27l22.06,32.19a1.41,1.41,0,0,1-1.17,2.22ZM294,128.05l43.19,7.45-19.27-28.12Z"/><path class="cls-1" d="M322.19,161a1.42,1.42,0,0,1-1-.4L289.79,130a1.41,1.41,0,0,1,1.23-2.4l49.44,8.52a1.43,1.43,0,0,1,1.09.9,1.4,1.4,0,0,1-.23,1.39l-18,22.14a1.42,1.42,0,0,1-1,.52ZM295,131.11l27,26.4,15.53-19.06Z"/><path class="cls-1" d="M259.71,161a1.42,1.42,0,0,1-1.31-.88,1.44,1.44,0,0,1,.31-1.55l31.08-30.68a1.41,1.41,0,0,1,2,0l31.41,30.66a1.42,1.42,0,0,1-1,2.43Zm31.08-30.12L263.16,158.2h55.55Z"/><path class="cls-1" d="M259.71,161h-.13a1.42,1.42,0,0,1-1-.6l-15.78-22.68a1.41,1.41,0,0,1,.92-2.2l46.85-8a1.4,1.4,0,0,1,1.5.74,1.43,1.43,0,0,1-.27,1.66L260.7,160.63A1.41,1.41,0,0,1,259.71,161ZM246.36,138l13.55,19.46,26.68-26.34Z"/><path class="cls-1" d="M243.93,138.36a1.43,1.43,0,0,1-1.2-.66,1.4,1.4,0,0,1,.05-1.58l21.12-29.5a1.39,1.39,0,0,1,1-.58,1.36,1.36,0,0,1,1.08.31l25.74,21.5a1.42,1.42,0,0,1-.67,2.49l-46.85,8Zm21.38-28.86L247.08,135l40.44-6.91Z"/><path class="cls-1" d="M265.05,108.86a1.39,1.39,0,0,1-1-.43,1.43,1.43,0,0,1-.29-1.57l13.11-29.31a1.41,1.41,0,0,1,1.14-.83,1.38,1.38,0,0,1,1.28.55l13.53,18a1.41,1.41,0,0,1,.24,1.21,1.43,1.43,0,0,1-.82.94l-26.63,11.3A1.37,1.37,0,0,1,265.05,108.86Zm13.41-28-10.65,23.84,21.65-9.19Z"/><path class="cls-1" d="M303.68,51.28h0l-21.44-.65a1.42,1.42,0,0,1-1.2-2.11l9.37-16.74a1.41,1.41,0,0,1,2.4-.12l12.07,17.39a1.41,1.41,0,0,1-1.16,2.23Zm-19.07-3.41,16.31.49-9.18-13.23Z"/></g></g></svg>