<svg xmlns="http://www.w3.org/2000/svg" viewBox="0 0 230.15 373.89"><defs><style>.cls-1{fill:#fff;}</style></defs><title>SVG-Знак-бел</title><g id="_1" data-name="1"><g id="Знак_бел." data-name="Знак бел."><path class="cls-1" d="M114,78.67a3.28,3.28,0,0,1-2.71-1.44l-49-72.1A3.28,3.28,0,0,1,66.61.44L168,58.54a3.28,3.28,0,0,1-.79,6l-52.39,14A3.48,3.48,0,0,1,114,78.67ZM75.7,13.22,115.39,71.6l42.43-11.33Z"/><path class="cls-1" d="M92.23,117.55l-.44,0A3.28,3.28,0,0,1,89,115.05L61.78,4.07a3.29,3.29,0,0,1,5.91-2.63l49,72.09a3.28,3.28,0,0,1,.15,3.45L95.1,115.87A3.29,3.29,0,0,1,92.23,117.55ZM72.52,20.23l20.91,85.16,16.7-29.84Z"/><path class="cls-1" d="M142,119.05a3.29,3.29,0,0,1-2.7-1.41l-28-40.39a3.27,3.27,0,0,1,1.85-5l52.39-14a3.28,3.28,0,0,1,3.84,4.52L145,117.11a3.28,3.28,0,0,1-2.69,1.93Zm-22.67-41.7,22.05,31.76,19.16-42.77Z"/><path class="cls-1" d="M82.75,184.67a3.32,3.32,0,0,1-1.58-.41A3.28,3.28,0,0,1,79.48,181L87,114a3.28,3.28,0,0,1,6.14-1.22l23.23,42a3.29,3.29,0,0,1-.8,4.14L84.82,183.93A3.26,3.26,0,0,1,82.75,184.67ZM92.41,125l-5.5,48.8,22.41-18.24Z"/><path class="cls-1" d="M147.09,183a3.29,3.29,0,0,1-1.88-.59L111.65,159a3.27,3.27,0,0,1-.81-4.58l28.49-40.55a3.29,3.29,0,0,1,6,1.63l5.06,64a3.29,3.29,0,0,1-3.27,3.55Zm-29-27.52,25.15,17.56-3.79-47.95Z"/><path class="cls-1" d="M175.64,247.71a3.29,3.29,0,0,1-1.07-.18l-61.48-21.22a3.28,3.28,0,0,1-1.55-5.09l32.93-43.46a3.28,3.28,0,0,1,5.62.65l28.56,64.69a3.29,3.29,0,0,1-3,4.61Zm-56.13-26.13,50.08,17.28-23.25-52.69Z"/><path class="cls-1" d="M226.86,322.44a3.6,3.6,0,0,1-.56,0L111.51,302.61a3.29,3.29,0,0,1-1.59-5.73l63.57-54.94a3.27,3.27,0,0,1,4.86.63l51.22,74.73a3.28,3.28,0,0,1-2.71,5.14ZM119.47,297.31,219.75,314.6,175,249.31Z"/><path class="cls-1" d="M185,373.85a3.3,3.3,0,0,1-2.3-.93l-72.92-71.2a3.29,3.29,0,0,1,2.85-5.59l114.8,19.79a3.28,3.28,0,0,1,2,5.31l-41.87,51.41a3.3,3.3,0,0,1-2.36,1.2ZM121.92,304.4l62.79,61.3,36-44.26Z"/><path class="cls-1" d="M39.92,373.89a3.29,3.29,0,0,1-2.31-5.63L109.76,297a3.27,3.27,0,0,1,4.6,0l72.92,71.19a3.29,3.29,0,0,1-2.29,5.64ZM112.08,304,47.93,367.31l129,0Z"/><path class="cls-1" d="M39.92,373.89l-.3,0a3.29,3.29,0,0,1-2.39-1.39L.59,319.83a3.29,3.29,0,0,1,2.14-5.11l108.78-18.59a3.29,3.29,0,0,1,2.86,5.58L42.23,372.94A3.3,3.3,0,0,1,39.92,373.89Zm-31-53.57,31.45,45.2,61.94-61.15Z"/><path class="cls-1" d="M3.29,321.24A3.29,3.29,0,0,1,.61,316l49-68.5a3.3,3.3,0,0,1,2.26-1.35,3.23,3.23,0,0,1,2.52.74l59.75,49.92a3.28,3.28,0,0,1-1.55,5.76L3.84,321.2A3.48,3.48,0,0,1,3.29,321.24Zm49.64-67L10.61,313.37l93.89-16Z"/><path class="cls-1" d="M52.31,252.74a3.3,3.3,0,0,1-2.34-1,3.26,3.26,0,0,1-.65-3.64L79.75,180a3.28,3.28,0,0,1,5.62-.63l31.41,41.82a3.28,3.28,0,0,1-1.34,5L53.6,252.47A3.25,3.25,0,0,1,52.31,252.74Zm31.16-64.93L58.73,243.16,109,221.82Z"/><path class="cls-1" d="M142,119.05h-.1l-49.79-1.5a3.27,3.27,0,0,1-2.76-1.66,3.32,3.32,0,0,1,0-3.23l21.76-38.88a3.28,3.28,0,0,1,5.56-.27l28,40.38a3.29,3.29,0,0,1-2.7,5.16Zm-44.28-7.9,37.87,1.14L114.29,81.57Z"/></g></g></svg>